<svg version="1.2" xmlns="http://www.w3.org/2000/svg" viewBox="0 0 88 23" width="88" height="23"><defs><clipPath clipPathUnits="userSpaceOnUse" id="cp1"><path d="m-28-28h1170v746h-1170z"/></clipPath><clipPath clipPathUnits="userSpaceOnUse" id="cp2"><path d="m1.29 21.68v-4.09h2.48v4.09zm4.61 0v-4.09h2.19v4.09zm5.29 0v-4.09h2.2v4.09zm13.09 0v-4.09h2.49v4.09zm7.88 0v-4.09h2.19v4.09zm5.29 0v-4.09h2.2v4.09zm6.11 0v-4.09h2.49v4.09zm14.86 0v-4.09h2.48v4.09zm9.14 0v-4.09h2.48v4.09zm4.86 0v-4.09h2.48v4.09zm4.5 0v-4.09h2.2v4.09zm9.86-4.09v4.13h-2.2v-4.13z"/></clipPath><linearGradient id="P" gradientUnits="userSpaceOnUse"/><linearGradient id="g1" x1="1.3" y1="19.6" x2="86.8" y2="19.6" href="#P"><stop stop-color="#81356f"/><stop offset="1" stop-color="#4c5ca6"/></linearGradient></defs><style>.a{fill:#fff}.b{fill:url(#g1)}</style><g clip-path="url(#cp1)"><path class="a" d="m1.3 1.5h2.5v11.4h-2.5z"/><path class="a" d="m5.9 1.5h2.8l2.5 8.2v-8.2h2.2v11.4h-2.9l-2.4-8.2v8.2h-2.2z"/><path class="a" d="m15 1.5h2.5l1.4 8.9 1.4-8.9h2.4l-2.4 11.4h-3z"/><path class="a" d="m24.3 1.5h6.2v1.8h-3.8v2.8h3.4v1.9h-3.4v3.1h3.8v1.8h-6.2z"/><path class="a" d="m32.2 1.5h2.8l2.5 8.2v-8.2h2.1v11.4h-2.8l-2.4-8.2v8.2h-2.2z"/><path class="a" d="m43.6 3.3h-2.3v-1.8h7.1v1.8h-2.3v9.6h-2.5z"/><path fill-rule="evenodd" class="a" d="m51.6 6.8c0-2.4 0.1-3.8 1.3-3.8 1.3 0 1.3 1.4 1.3 3.8v0.7c0 2.4 0 3.8-1.3 3.8-1.3 0-1.3-1.4-1.3-3.8zm-2.6 1.2c0 3.5 0.9 5.1 3.9 5.1 3 0 3.9-1.6 3.9-5.1v-1.6c0-3.5-0.9-5.1-3.9-5.1-3 0-3.9 1.6-3.9 5.1z"/><path fill-rule="evenodd" class="a" d="m61.6 6.5h-0.7v-3.3h0.7c1.4 0 1.7 0.3 1.7 1.6 0 1.4-0.3 1.7-1.7 1.7zm0.4 1.5l1.4 4.9h2.6l-1.8-5.5c1-0.4 1.6-1.2 1.6-2.8 0-2.5-1.2-3.1-4.2-3.1h-3.2v11.4h2.5v-4.9c0.1 0 0.9 0 1.1 0z"/><path class="a" d="m67.6 8.4v-6.9h2.5v6.9c0 2-0.1 2.9 1.1 2.9 1.3 0 1.2-0.9 1.2-2.9v-6.9h2.5v6.8c0 3.7-0.5 4.8-3.7 4.8-3.1 0-3.6-1.1-3.6-4.7"/><path class="a" d="m76.9 1.5h3.5l1.5 8.5 1.5-8.5h3.4v11.4h-2.2v-9l-0.2 0.9-1.6 8.1h-1.9l-1.6-8.1-0.1-0.9v9h-2.3z"/><path fill-rule="evenodd" d="m1.3 21.7v-4.1h2.5v4.1zm4.6 0v-4.1h2.2v4.1zm5.3 0v-4.1h2.2v4.1zm13.1 0v-4.1h2.4v4.1zm7.9 0v-4.1h2.2v4.1zm5.3 0v-4.1h2.2v4.1zm6.1 0v-4.1h2.5v4.1zm14.9 0v-4.1h2.4v4.1zm9.2 0v-4.1h2.5v4.1zm4.8 0v-4.1h2.5v4.1zm4.5 0v-4.1h2.2v4.1zm9.9-4.1v4.1h-2.2v-4.1z"/><g clip-path="url(#cp2)"><path class="b" d="m1.3 17.6h85.5v4.1h-85.5z"/></g></g></svg>